<svg version="1.2" xmlns="http://www.w3.org/2000/svg" viewBox="0 0 155 155" width="179" height="179">
	<title>&lt;Group&gt;</title>
	<style>
		.s0 { fill: #fbb96b } 
		.s1 { fill: #c67640 } 
		.s2 { fill: #faead7 } 
		.s3 { fill: #ffcdba } 
	</style>
	<g id="&lt;Group&gt;">
		<g id="&lt;Group&gt;">
		</g>
		<g id="&lt;Group&gt;">
			<path id="&lt;Path&gt;" class="s0" d="m126.9 52.3c-0.3-1.4-0.6-2.8-0.7-4.2-0.4-3.5 0.5-7.1 0.7-10.6 0.4-7.8-0.4-15.7-3.5-23-1.7-3.8-3.7-6.9-8.8-4.9-4.4 1.7-8.4 4.2-12.6 6.2-3.5 1.7-7.5 4.4-11.7 3.9-4-0.5-7.6-1-11.8-0.8-3.9 0.1-7.4 0.9-11.2 1.4-4.4 0.5-10.4-4.4-13.8-6.4-3.5-2-7.7-5-12.1-4.9-5.1 0.1-7.3 5.3-8.3 9-1 3.7-1 7.6-1.2 11.3-0.3 4.9 0.3 9.7-0.1 14.6-0.8 10.1-2.4 19.8 1.8 29.5 2.1 4.8 5.3 9 7.9 13.6 2.6 4.7 5.1 9.5 7.7 14.2q7.8 14 15.6 28 2.8 5 5.6 9.9 2.3 4.2 4.7 8.3c1.6 3.5 7.1 3.5 8.7 0q5.6-10 11.2-20 10.2-18.2 20.4-36.4c3.5-6.3 7.7-12.2 10.5-18.8 1.7-3.8 2.3-8 2.2-12.1-0.1-2.7-0.7-5.2-1.2-7.8z"/>
			<g id="&lt;Group&gt;">
				<g id="&lt;Group&gt;">
					<g id="&lt;Group&gt;">
						<path id="&lt;Path&gt;" class="s1" d="m89.9 76.9c1-0.7 2.2-1.2 3.4-1.7 3.2-1.2 6.5-1.9 9.9-2.2 2.7-0.2 5.5-0.1 8.2 0.2 0.5 0 0.5-0.7 0-0.8-4.5-0.4-9-0.3-13.4 0.7-2.6 0.5-5.1 1.3-7.4 2.5q-0.6 0.3-1.1 0.6c-0.4 0.3 0 1 0.4 0.7z"/>
						<path id="&lt;Path&gt;" class="s1" d="m88.9 79c1.6-0.5 3.2-0.9 4.7-1.1 3.5-0.6 7.2-0.8 10.7-0.4 2.4 0.3 4.7 0.9 6.9 1.8 0.4 0.2 0.8-0.4 0.4-0.6-6.6-2.9-14.3-2.7-21.2-0.9q-0.8 0.2-1.7 0.5c-0.4 0.1-0.2 0.8 0.2 0.7z"/>
						<path id="&lt;Path&gt;" class="s1" d="m89.8 80.4c-0.2 0 0.1 0 0.2-0.1q0.3 0 0.7 0 1.3 0 2.7 0.1c3 0.4 6 1.5 8.6 3 2.2 1.3 4.1 2.8 5.9 4.6 0.3 0.3 0.9-0.2 0.5-0.6-4.6-4.5-10.8-7.9-17.5-7.8q-0.6-0.1-1.3 0c-0.5 0.1-0.3 0.8 0.2 0.8z"/>
					</g>
					<g id="&lt;Group&gt;">
						<path id="&lt;Path&gt;" class="s1" d="m69.4 76.2c-1.1-0.7-2.3-1.2-3.6-1.7-3.2-1.2-6.6-1.9-10-2.2-2.8-0.2-5.5-0.2-8.3 0.1-0.5 0.1-0.5 0.8 0 0.8 4.4-0.5 8.9-0.4 13.3 0.6 2.4 0.5 4.9 1.3 7.1 2.5q0.6 0.3 1.1 0.6c0.4 0.3 0.8-0.4 0.4-0.7z"/>
						<path id="&lt;Path&gt;" class="s1" d="m70.2 78.3c-1.6-0.6-3.3-0.9-4.9-1.2-3.7-0.6-7.4-0.8-11.1-0.3-2.4 0.3-4.7 0.9-6.9 1.9-0.4 0.2 0 0.8 0.4 0.6 6.4-2.8 14-2.5 20.7-0.8q0.8 0.2 1.6 0.5c0.4 0.1 0.6-0.6 0.2-0.7z"/>
						<path id="&lt;Path&gt;" class="s1" d="m69.3 79.6c-1.2-0.1-2.6-0.1-3.9 0.1-3.1 0.4-6.1 1.5-8.9 3.1-2.2 1.2-4.2 2.8-6 4.6-0.4 0.4 0.2 0.9 0.5 0.6 4.5-4.5 10.5-7.8 17-7.7q0.4 0 0.9 0 0.1 0.1 0.2 0.1c0.1 0 0.1 0 0 0 0.5 0 0.7-0.7 0.2-0.8z"/>
					</g>
				</g>
				<g id="&lt;Group&gt;">
					<g id="&lt;Group&gt;">
						<path id="&lt;Path&gt;" class="s1" d="m81.2 82.5l3-3.5c1.2-1.4 0.2-3.6-1.7-3.6h-6c-1.8 0-2.8 2.2-1.6 3.6l3 3.5c0.8 1 2.4 1 3.3 0z"/>
					</g>
					<g id="&lt;Group&gt;">
						<path id="&lt;Path&gt;" class="s1" d="m88.5 84.1q-0.2 0.2-0.3 0.4c-0.1 0.1 0-0.1 0-0.1 0 0-0.1 0.1-0.1 0.1q0 0.1-0.1 0.2-0.2 0.2-0.4 0.3c-0.1 0.2 0.1 0 0.1 0 0 0-0.1 0.1-0.1 0.1q-0.1 0.1-0.3 0.1-0.2 0.1-0.4 0.2c0 0-0.1 0.1-0.1 0.1 0 0 0.3-0.1 0.1 0q-0.1 0-0.3 0.1-0.2 0-0.4 0.1-0.1 0-0.3 0 0 0.1-0.1 0.1c-0.2 0 0-0.1 0.1 0-0.2-0.1-0.4 0-0.5 0q-0.3 0-0.6 0-0.2 0-0.5 0c-0.2 0 0.1 0 0.1 0 0 0-0.1 0-0.1 0q-0.2-0.1-0.3-0.1-0.6-0.1-1.1-0.3-0.1 0-0.2-0.1c-0.3-0.1 0.1 0.1-0.1 0q-0.2-0.1-0.5-0.2-0.3-0.2-0.5-0.4-0.1 0-0.3-0.1 0-0.1-0.1-0.1c-0.1-0.1-0.2-0.1 0 0-0.1-0.1-0.3-0.3-0.4-0.4q-0.3-0.2-0.5-0.5c-0.3-0.4-1.1-0.4-1.5 0-0.4 0.5-0.4 1.1 0 1.5 2.2 2.6 6.4 3.7 9.4 2.1 0.9-0.5 1.6-1.2 2.1-2.1 0.3-0.5 0.1-1.2-0.4-1.4-0.5-0.3-1.1-0.2-1.4 0.4z"/>
						<path id="&lt;Path&gt;" class="s1" d="m68.6 85.1c0.9 1.5 2.4 2.5 4.1 2.7 1.7 0.3 3.5-0.1 5.1-0.9 0.9-0.4 1.6-1 2.3-1.8 0.3-0.4 0.4-1.1 0-1.5-0.4-0.3-1.1-0.4-1.5 0q-0.4 0.5-0.8 0.8-0.1 0.1-0.1 0.1c0 0 0.2-0.1 0.1-0.1q-0.2 0.1-0.3 0.2-0.2 0.2-0.4 0.3-0.3 0.1-0.5 0.3-0.1 0-0.3 0.1 0 0-0.1 0c-0.1 0.1 0.2-0.1 0.1 0q-0.6 0.2-1.1 0.3-0.2 0.1-0.5 0.1-0.1 0.1-0.1 0.1c-0.2 0 0 0 0 0 0 0-0.2 0-0.2 0q-0.6 0-1.1 0-0.1 0-0.2 0c-0.2 0 0.2 0 0.1 0q-0.1 0-0.1 0-0.3-0.1-0.6-0.2-0.2 0-0.4-0.1c0 0-0.1-0.1-0.1-0.1 0 0 0.2 0.2 0 0.1q-0.1-0.1-0.2-0.1-0.3-0.2-0.5-0.3c-0.2-0.2 0.1 0.1 0-0.1q-0.1-0.1-0.3-0.2c0 0-0.3-0.3-0.3-0.4 0 0 0.1 0.2 0 0.1q0-0.1-0.1-0.2-0.1-0.1-0.2-0.2c-0.2-0.5-0.9-0.7-1.4-0.4-0.5 0.3-0.7 0.9-0.4 1.4z"/>
					</g>
					<g id="&lt;Group&gt;">
						<path id="&lt;Path&gt;" class="s1" d="m79.4 85.6c0.8 0 1.4-0.6 1.4-1.3v-4.9c0-0.8-0.6-1.4-1.4-1.4-0.7 0-1.3 0.6-1.3 1.4v4.9c0 0.7 0.6 1.3 1.3 1.3z"/>
					</g>
				</g>
				<path id="&lt;Path&gt;" class="s2" d="m69.7 128.1l-7.8-15.1c-3.8-7.3 1.5-16 9.7-16h15.7c8.2 0 13.5 8.7 9.7 16l-7.8 15.1c-4.1 7.8-15.4 7.8-19.5 0z"/>
				<g id="&lt;Group&gt;">
					<path id="&lt;Path&gt;" class="s3" d="m39.4 9.8c0 0 8.8 6.1 12.1 14.8 0.6 1.4 0 3-1.2 3.9-4.1 2.7-11.8 8.4-18.7 23.6-1.4-5.4-1.1-22.2 1.5-33 1.3-5.7 3.9-9.7 6.3-9.3z"/>
					<path id="&lt;Path&gt;" class="s3" d="m118.5 9.5c0 0-9.1 6.3-12.4 15.1-0.6 1.4-0.1 3 1.2 3.9 4.1 2.7 12 8.6 18.9 23.9 1.4-5.4 2-21.5-1.7-33.3-1.3-5.7-3.5-10-6-9.6z"/>
				</g>
				<g id="&lt;Group&gt;">
					<g id="&lt;Group&gt;">
						<path id="&lt;Path&gt;" class="s1" d="m86.9 59.7c0 4.2 3.6 7.6 8 7.6 4.4 0 8-3.4 8-7.6 0-4.2-3.6-7.6-8-7.6-4.4 0-8 3.4-8 7.6z"/>
						<path id="&lt;Path&gt;" class="s2" d="m94.5 59.1c0.8 1.1 2.3 1.3 3.4 0.6 1.2-0.8 1.5-2.3 0.8-3.4-0.7-1.1-2.3-1.3-3.4-0.5-1.2 0.7-1.5 2.2-0.8 3.3z"/>
					</g>
					<g id="&lt;Group&gt;">
						<path id="&lt;Path&gt;" class="s1" d="m56 59.7c0 4.2 3.6 7.6 8 7.6 4.4 0 8-3.4 8-7.6 0-4.2-3.6-7.6-8-7.6-4.4 0-8 3.4-8 7.6z"/>
						<path id="&lt;Path&gt;" class="s2" d="m63.6 59.1c0.8 1.1 2.3 1.3 3.4 0.6 1.2-0.8 1.5-2.3 0.8-3.4-0.7-1.1-2.2-1.3-3.4-0.5-1.1 0.7-1.5 2.2-0.8 3.3z"/>
					</g>
				</g>
			</g>
		</g>
	</g>
</svg>