<svg version="1.2" xmlns="http://www.w3.org/2000/svg" viewBox="0 0 187 187" width="160" height="160">
	<title>&lt;Group&gt;</title>
	<style>
		.s0 { fill: #ef9a53 } 
		.s1 { fill: #fcba6b } 
		.s2 { fill: #c67640 } 
		.s3 { fill: #faead7 } 
		.s4 { fill: #ffcdba } 
	</style>
	<g id="&lt;Group&gt;">
		<g id="&lt;Group&gt;">
			<path id="&lt;Path&gt;" class="s0" d="m49.7 186.4h87.4c27.2 0 49.2-22 49.2-49.2v-87.4c0-27.1-22-49.1-49.2-49.1h-87.4c-27.1 0-49.1 22-49.1 49.1v87.4c0 27.2 22 49.2 49.1 49.2z"/>
		</g>
		<g id="&lt;Group&gt;">
			<path id="&lt;Path&gt;" class="s1" d="m140.9 61c-0.3-1.5-0.6-3.1-0.7-4.7-0.4-4 0.5-8.1 0.7-12.1 0.4-8.8-0.4-17.7-3.5-25.9-1.7-4.4-3.7-7.9-8.8-5.6-4.4 1.9-8.4 4.8-12.6 7-3.5 1.9-7.5 5-11.7 4.4-4-0.6-7.6-1.1-11.8-0.9-3.9 0.1-7.4 1.1-11.2 1.6-4.4 0.6-10.4-5-13.8-7.2-3.5-2.3-7.7-5.7-12.1-5.6-5.1 0.1-7.3 6-8.3 10.2-1 4.2-1 8.5-1.2 12.8-0.3 5.5 0.3 11-0.1 16.5-0.8 11.4-2.4 22.4 1.8 33.4 2.1 5.4 5.3 10.2 7.9 15.5 2.6 5.3 5.1 10.7 7.7 16q10.6 21.5 21.2 43 2.3 4.7 4.7 9.4c1.6 3.8 7.1 3.8 8.7 0q5.6-11.4 11.2-22.7 10.2-20.6 20.4-41.2c3.5-7.1 7.7-13.9 10.5-21.3 1.7-4.4 2.3-9.1 2.2-13.7-0.1-3-0.7-6-1.2-8.9z"/>
			<g id="&lt;Group&gt;">
				<g id="&lt;Group&gt;">
					<g id="&lt;Group&gt;">
						<path id="&lt;Path&gt;" class="s2" d="m103.9 79.9c1-0.7 2.2-1.2 3.4-1.7 3.2-1.2 6.5-1.9 9.9-2.2 2.7-0.2 5.5-0.1 8.2 0.2 0.5 0 0.5-0.7 0-0.8-4.5-0.4-9-0.3-13.4 0.7-2.6 0.5-5.1 1.3-7.4 2.5q-0.6 0.3-1.1 0.6c-0.4 0.3 0 1 0.4 0.7z"/>
						<path id="&lt;Path&gt;" class="s2" d="m102.9 82c1.6-0.5 3.2-0.9 4.7-1.1 3.5-0.6 7.2-0.8 10.7-0.4 2.4 0.3 4.7 0.9 6.9 1.8 0.4 0.2 0.8-0.4 0.4-0.6-6.6-2.9-14.3-2.7-21.2-0.9q-0.8 0.2-1.7 0.5c-0.4 0.1-0.2 0.8 0.2 0.7z"/>
						<path id="&lt;Path&gt;" class="s2" d="m103.8 83.4c-0.2 0 0.1 0 0.2-0.1q0.3 0 0.7 0 1.3 0 2.7 0.1c3 0.4 6 1.5 8.6 3 2.2 1.3 4.1 2.8 5.9 4.6 0.3 0.3 0.9-0.2 0.5-0.6-4.6-4.5-10.8-7.9-17.5-7.8q-0.6-0.1-1.3 0c-0.5 0.1-0.3 0.8 0.2 0.8z"/>
					</g>
					<g id="&lt;Group&gt;">
						<path id="&lt;Path&gt;" class="s2" d="m83.4 79.2c-1.1-0.7-2.3-1.2-3.6-1.7-3.2-1.2-6.6-1.9-10-2.2-2.8-0.2-5.5-0.2-8.3 0.1-0.5 0.1-0.5 0.8 0 0.8 4.4-0.5 8.9-0.4 13.3 0.6 2.4 0.5 4.9 1.3 7.1 2.5q0.6 0.3 1.1 0.6c0.4 0.3 0.8-0.4 0.4-0.7z"/>
						<path id="&lt;Path&gt;" class="s2" d="m84.2 81.3c-1.6-0.6-3.3-0.9-4.9-1.2-3.7-0.6-7.4-0.8-11.1-0.3-2.4 0.3-4.7 0.9-6.9 1.9-0.4 0.2 0 0.8 0.4 0.6 6.4-2.8 14-2.5 20.7-0.8q0.8 0.2 1.6 0.5c0.4 0.1 0.6-0.6 0.2-0.7z"/>
						<path id="&lt;Path&gt;" class="s2" d="m83.3 82.6c-1.2-0.1-2.6-0.1-3.9 0.1-3.1 0.4-6.1 1.5-8.9 3.1-2.2 1.2-4.2 2.8-6 4.6-0.4 0.4 0.2 0.9 0.5 0.6 4.5-4.5 10.5-7.8 17-7.7q0.4 0 0.9 0 0.1 0.1 0.2 0.1c0.1 0 0.1 0 0 0 0.5 0 0.7-0.7 0.2-0.8z"/>
					</g>
				</g>
				<g id="&lt;Group&gt;">
					<g id="&lt;Group&gt;">
						<path id="&lt;Path&gt;" class="s2" d="m95.2 85.5l3-3.5c1.2-1.4 0.2-3.6-1.7-3.6h-6c-1.8 0-2.8 2.2-1.6 3.6l3 3.5c0.8 1 2.4 1 3.3 0z"/>
					</g>
					<g id="&lt;Group&gt;">
						<path id="&lt;Path&gt;" class="s2" d="m102.5 87.1q-0.2 0.2-0.3 0.4c-0.1 0.1 0-0.1 0-0.1 0 0-0.1 0.1-0.1 0.1q0 0.1-0.1 0.2-0.2 0.2-0.4 0.3c-0.1 0.2 0.1 0 0.1 0 0 0-0.1 0.1-0.1 0.1q-0.1 0.1-0.3 0.1-0.2 0.1-0.4 0.2c0 0-0.1 0.1-0.1 0.1 0 0 0.3-0.1 0.1 0q-0.1 0-0.3 0.1-0.2 0-0.4 0.1-0.1 0-0.3 0 0 0.1-0.1 0.1c-0.2 0 0-0.1 0.1 0-0.2-0.1-0.4 0-0.5 0q-0.3 0-0.6 0-0.2 0-0.5 0c-0.2 0 0.1 0 0.1 0 0 0-0.1 0-0.1 0q-0.2-0.1-0.3-0.1-0.6-0.1-1.1-0.3-0.1 0-0.2-0.1c-0.3-0.1 0.1 0.1-0.1 0q-0.2-0.1-0.5-0.2-0.3-0.2-0.5-0.4-0.1 0-0.3-0.1 0-0.1-0.1-0.1c-0.1-0.1-0.2-0.1 0 0-0.1-0.1-0.3-0.3-0.4-0.4q-0.3-0.2-0.5-0.5c-0.3-0.4-1.1-0.4-1.5 0-0.4 0.5-0.4 1.1 0 1.5 2.2 2.6 6.4 3.7 9.4 2.1 0.9-0.5 1.6-1.2 2.1-2.1 0.3-0.5 0.1-1.2-0.4-1.4-0.5-0.3-1.1-0.2-1.4 0.4z"/>
						<path id="&lt;Path&gt;" class="s2" d="m82.6 88.1c0.9 1.5 2.4 2.5 4.1 2.7 1.7 0.3 3.5-0.1 5.1-0.9 0.9-0.4 1.6-1 2.3-1.8 0.3-0.4 0.4-1.1 0-1.5-0.4-0.3-1.1-0.4-1.5 0q-0.4 0.5-0.8 0.8-0.1 0.1-0.1 0.1c0 0 0.2-0.1 0.1-0.1q-0.2 0.1-0.3 0.2-0.2 0.2-0.4 0.3-0.3 0.1-0.5 0.3-0.1 0-0.3 0.1 0 0-0.1 0c-0.1 0.1 0.2-0.1 0.1 0q-0.6 0.2-1.1 0.3-0.2 0.1-0.5 0.1-0.1 0.1-0.1 0.1c-0.2 0 0 0 0 0 0 0-0.2 0-0.2 0q-0.6 0-1.1 0-0.1 0-0.2 0c-0.2 0 0.2 0 0.1 0q-0.1 0-0.1 0-0.3-0.1-0.6-0.2-0.2 0-0.4-0.1c0 0-0.1-0.1-0.1-0.1 0 0 0.2 0.2 0 0.1q-0.1-0.1-0.2-0.1-0.3-0.2-0.5-0.3c-0.2-0.2 0.1 0.1 0-0.1q-0.1-0.1-0.3-0.2c0 0-0.3-0.3-0.3-0.4 0 0 0.1 0.2 0 0.1q0-0.1-0.1-0.2-0.1-0.1-0.2-0.2c-0.2-0.5-0.9-0.7-1.4-0.4-0.5 0.3-0.7 0.9-0.4 1.4z"/>
					</g>
					<g id="&lt;Group&gt;">
						<path id="&lt;Path&gt;" class="s2" d="m93.4 88.6c0.8 0 1.4-0.6 1.4-1.3v-4.9c0-0.8-0.6-1.4-1.4-1.4-0.7 0-1.3 0.6-1.3 1.4v4.9c0 0.7 0.6 1.3 1.3 1.3z"/>
					</g>
				</g>
				<path id="&lt;Path&gt;" class="s3" d="m83.7 134.1l-7.8-15.1c-3.8-7.3 1.5-16 9.7-16h15.7c8.2 0 13.5 8.7 9.7 16l-7.8 15.1c-4.1 7.8-15.4 7.8-19.5 0z"/>
				<g id="&lt;Group&gt;">
					<path id="&lt;Path&gt;" class="s4" d="m53.4 12.8c0 0 8.8 6.1 12.1 14.8 0.6 1.4 0 3-1.2 3.9-4.1 2.7-11.8 8.4-18.7 23.6-1.4-5.4-1.1-22.2 1.5-33 1.3-5.7 3.9-9.7 6.3-9.3z"/>
					<path id="&lt;Path&gt;" class="s4" d="m132.5 12.5c0 0-9.1 6.3-12.4 15.1-0.6 1.4-0.1 3 1.2 3.9 4.1 2.7 12 8.6 18.9 23.9 1.4-5.4 2-21.5-1.7-33.3-1.3-5.7-3.5-10-6-9.6z"/>
				</g>
				<g id="&lt;Group&gt;">
					<g id="&lt;Group&gt;">
						<path id="&lt;Path&gt;" class="s2" d="m100.9 62.7c0 4.2 3.6 7.6 8 7.6 4.4 0 8-3.4 8-7.6 0-4.2-3.6-7.6-8-7.6-4.4 0-8 3.4-8 7.6z"/>
						<path id="&lt;Path&gt;" class="s3" d="m108.5 62.1c0.8 1.1 2.3 1.3 3.4 0.6 1.2-0.8 1.5-2.3 0.8-3.4-0.7-1.1-2.3-1.3-3.4-0.5-1.2 0.7-1.5 2.2-0.8 3.3z"/>
					</g>
					<g id="&lt;Group&gt;">
						<path id="&lt;Path&gt;" class="s2" d="m70 62.7c0 4.2 3.6 7.6 8 7.6 4.4 0 8-3.4 8-7.6 0-4.2-3.6-7.6-8-7.6-4.4 0-8 3.4-8 7.6z"/>
						<path id="&lt;Path&gt;" class="s3" d="m77.6 62.1c0.8 1.1 2.3 1.3 3.4 0.6 1.2-0.8 1.5-2.3 0.8-3.4-0.7-1.1-2.2-1.3-3.4-0.5-1.1 0.7-1.5 2.2-0.8 3.3z"/>
					</g>
				</g>
			</g>
		</g>
	</g>
</svg>