<?xml version="1.0" encoding="UTF-8"?>
<svg xmlns="http://www.w3.org/2000/svg" xmlns:xlink="http://www.w3.org/1999/xlink" width="30px" height="30px" viewBox="0 0 30 30" version="1.1">
<g id="surface1">
<path style=" stroke:none;fill-rule:nonzero;fill:rgb(99.607843%,88.235294%,52.941176%);fill-opacity:1;" d="M 20.667969 11.328125 C 20.667969 14.460938 18.132812 17 15 17 C 11.867188 17 9.332031 14.460938 9.332031 11.328125 C 9.332031 8.199219 11.867188 5.660156 15 5.660156 C 18.132812 5.660156 20.667969 8.199219 20.667969 11.328125 Z M 20.667969 11.328125 "/>
<path style=" stroke:none;fill-rule:nonzero;fill:rgb(100%,77.647059%,10.588235%);fill-opacity:1;" d="M 15 17.839844 C 11.410156 17.839844 8.488281 14.917969 8.488281 11.328125 C 8.488281 7.738281 11.410156 4.820312 15 4.820312 C 18.589844 4.820312 21.511719 7.738281 21.511719 11.328125 C 21.511719 14.917969 18.589844 17.839844 15 17.839844 Z M 15 6.5 C 12.335938 6.5 10.171875 8.667969 10.171875 11.328125 C 10.171875 13.992188 12.335938 16.15625 15 16.15625 C 17.664062 16.15625 19.828125 13.992188 19.828125 11.328125 C 19.828125 8.667969 17.664062 6.5 15 6.5 Z M 15 6.5 "/>
<path style=" stroke:none;fill-rule:nonzero;fill:rgb(100%,77.647059%,10.588235%);fill-opacity:1;" d="M 15 0 C 8.753906 0 3.671875 5.082031 3.671875 11.328125 C 3.671875 15.550781 5.992188 19.242188 9.429688 21.191406 L 14.273438 29.578125 C 14.421875 29.839844 14.699219 30 15 30 C 15.300781 30 15.578125 29.839844 15.726562 29.578125 L 20.652344 21.050781 C 20.882812 20.648438 20.746094 20.136719 20.34375 19.902344 C 19.941406 19.671875 19.425781 19.808594 19.195312 20.210938 L 15 27.476562 L 11.980469 22.25 C 12.941406 22.515625 13.957031 22.660156 15 22.660156 C 15.464844 22.660156 15.839844 22.28125 15.839844 21.816406 C 15.839844 21.351562 15.464844 20.976562 15 20.976562 C 9.679688 20.976562 5.351562 16.648438 5.351562 11.328125 C 5.351562 6.007812 9.679688 1.679688 15 1.679688 C 20.320312 1.679688 24.648438 6.007812 24.648438 11.328125 C 24.648438 13.726562 23.761719 16.023438 22.15625 17.800781 C 21.84375 18.144531 21.871094 18.675781 22.214844 18.988281 C 22.558594 19.296875 23.09375 19.273438 23.402344 18.925781 C 25.289062 16.84375 26.328125 14.144531 26.328125 11.328125 C 26.328125 5.082031 21.246094 0 15 0 Z M 15 0 "/>
</g>
</svg>
